<?xml version="1.0" encoding="UTF-8" standalone="no"?>
<svg
   xmlns:dc="http://purl.org/dc/elements/1.1/"
   xmlns:cc="http://creativecommons.org/ns#"
   xmlns:rdf="http://www.w3.org/1999/02/22-rdf-syntax-ns#"
   xmlns:svg="http://www.w3.org/2000/svg"
   xmlns="http://www.w3.org/2000/svg"
   xmlns:sodipodi="http://sodipodi.sourceforge.net/DTD/sodipodi-0.dtd"
   xmlns:inkscape="http://www.inkscape.org/namespaces/inkscape"
   viewBox="0 0 40 40"
   version="1.1"
   id="svg24"
   sodipodi:docname="BTT Icon.svg"
   inkscape:version="1.0.1 (3bc2e81, 2020-09-07)"
   inkscape:export-filename="/home/jdwood/Development/WA/mondele/BTT-Writer-Desktop/icons/BTT Icon-es.png"
   inkscape:export-xdpi="614.40002"
   inkscape:export-ydpi="614.40002">
  <metadata
     id="metadata28">
    <rdf:RDF>
      <cc:Work
         rdf:about="">
        <dc:format>image/svg+xml</dc:format>
        <dc:type
           rdf:resource="http://purl.org/dc/dcmitype/StillImage" />
      </cc:Work>
    </rdf:RDF>
  </metadata>
  <sodipodi:namedview
     pagecolor="#ffffff"
     bordercolor="#666666"
     borderopacity="1"
     objecttolerance="10"
     gridtolerance="10"
     guidetolerance="10"
     inkscape:pageopacity="0"
     inkscape:pageshadow="2"
     inkscape:window-width="1606"
     inkscape:window-height="911"
     id="namedview26"
     showgrid="false"
     showguides="true"
     inkscape:guide-bbox="true"
     inkscape:zoom="14.919953"
     inkscape:cx="9.0202618"
     inkscape:cy="19.593638"
     inkscape:window-x="101"
     inkscape:window-y="48"
     inkscape:window-maximized="0"
     inkscape:current-layer="svg24">
    <sodipodi:guide
       position="28.217247,19.557576"
       orientation="0,-1"
       id="guide876" />
    <sodipodi:guide
       position="52.077912,19.557576"
       orientation="0.70710678,-0.70710678"
       id="guide878" />
    <sodipodi:guide
       position="20.040277,28.739911"
       orientation="1,0"
       id="guide880" />
  </sodipodi:namedview>
  <defs
     id="defs9">
    <style
       id="style2">.cls-1{opacity:0;}.cls-2{fill:url(#radial-gradient);}.cls-3{fill:#0250d3;}.cls-4{fill:#f3f7fd;}</style>
    <radialGradient
       id="radial-gradient"
       cx="20"
       cy="20"
       r="16.03"
       gradientUnits="userSpaceOnUse"
       gradientTransform="translate(-0.04)">
      <stop
         offset="0"
         stop-color="#003389"
         id="stop4" />
      <stop
         offset="1"
         stop-color="#001c4a"
         id="stop6" />
    </radialGradient>
  </defs>
  <title
     id="title11">Writer_Icon_Color</title>
  <rect
     class="cls-1"
     width="40"
     height="40"
     id="rect13"
     x="0"
     y="0" />
  <path
     class="cls-2"
     d="M 19.96,37 A 2.91,2.91 0 0 1 18.5,36.6 l -12,-7 A 3.18,3.18 0 0 1 4.96,26.89 V 13.11 A 3.18,3.18 0 0 1 6.5,10.37 l 12,-7 a 2.86,2.86 0 0 1 2.92,0 l 12,7 a 3.18,3.18 0 0 1 1.54,2.74 v 13.78 a 3.18,3.18 0 0 1 -1.54,2.74 l -12,7 A 2.91,2.91 0 0 1 19.96,37 Z"
     id="path15"
     style="fill:url(#radial-gradient)" />
  <path
     class="cls-3"
     d="m 20,4 a 2,2 0 0 1 1,0.26 l 12,7 a 2.15,2.15 0 0 1 1,1.87 v 13.76 a 2.15,2.15 0 0 1 -1,1.87 l -12,7 a 1.9,1.9 0 0 1 -1.92,0 l -12,-7 a 2.15,2.15 0 0 1 -1,-1.87 V 13.11 a 2.15,2.15 0 0 1 1,-1.87 l 12,-7 A 2,2 0 0 1 20,4 m 0,-2 a 3.93,3.93 0 0 0 -2,0.53 l -12,7 a 4.16,4.16 0 0 0 -2,3.6 v 13.76 a 4.16,4.16 0 0 0 2,3.6 l 12,7 a 3.89,3.89 0 0 0 3.92,0 l 12,-7 a 4.16,4.16 0 0 0 2,-3.6 V 13.11 a 4.16,4.16 0 0 0 -2,-3.6 l -12,-7 A 3.93,3.93 0 0 0 20,2 Z"
     id="path17" />
  <text
     xml:space="preserve"
     style="font-style:normal;font-weight:normal;font-size:15.4512px;line-height:1.25;font-family:sans-serif;fill:#ffffff;fill-opacity:1;stroke:none;stroke-width:0.38628"
     x="11.533157"
     y="22.345221"
     id="text47"
     transform="scale(0.95728417,1.0446219)"><tspan
       sodipodi:role="line"
       id="tspan45"
       x="11.533157"
       y="22.345221"
       style="fill:#ffffff;fill-opacity:1;stroke-width:0.38628">TA</tspan></text>
  <text
     xml:space="preserve"
     style="font-style:normal;font-weight:normal;font-size:10.24px;line-height:1.25;font-family:sans-serif;fill:#ffffff;fill-opacity:1;stroke:none;stroke-width:0.256"
     x="15.935"
     y="31.215378"
     id="text874"><tspan
       sodipodi:role="line"
       id="tspan872"
       x="15.935"
       y="31.215378"
       style="fill:#ffffff;fill-opacity:1;stroke-width:0.256">fr</tspan></text>
</svg>
