<svg xmlns="http://www.w3.org/2000/svg" viewBox="0 0 40 40"><defs><style>.cls-1{opacity:0;}</style></defs><title>Writer_Icon_Black</title><g id="Layer_2" data-name="Layer 2"><g id="BTT_Questions_Expanded_" data-name="BTT Questions (Expanded)"><g id="Writer_Icon_Black"><rect class="cls-1" width="40" height="40"/><path d="M20,4a2,2,0,0,1,1,.26l12,7a2.15,2.15,0,0,1,1,1.87V26.89a2.15,2.15,0,0,1-1,1.87l-12,7a1.9,1.9,0,0,1-1.92,0l-12-7a2.15,2.15,0,0,1-1-1.87V13.11a2.15,2.15,0,0,1,1-1.87l12-7A2,2,0,0,1,20,4m0-2a3.93,3.93,0,0,0-2,.53l-12,7a4.16,4.16,0,0,0-2,3.6V26.89a4.16,4.16,0,0,0,2,3.6l12,7a3.89,3.89,0,0,0,3.92,0l12-7a4.16,4.16,0,0,0,2-3.6V13.11a4.16,4.16,0,0,0-2-3.6l-12-7A3.93,3.93,0,0,0,20,2Zm5.6,16.29H24V16.57h1.6m0,4.29H24V19.14h1.6m-2.4-.85H21.6V16.57h1.6m0,4.29H21.6V19.14h1.6m0,5.15H16.8V22.57h6.4M16,18.29H14.4V16.57H16m0,4.29H14.4V19.14H16m.8,0h1.6v1.72H16.8m0-4.29h1.6v1.72H16.8m2.4.85h1.6v1.72H19.2m0-4.29h1.6v1.72H19.2M26.4,14H13.6A1.65,1.65,0,0,0,12,15.71v8.58A1.66,1.66,0,0,0,13.6,26H26.4A1.66,1.66,0,0,0,28,24.29V15.71A1.66,1.66,0,0,0,26.4,14Z"/></g></g></g></svg>